<svg xmlns="http://www.w3.org/2000/svg" width="408.56787109375" height="174.7598419189453" viewBox="-287.26226806640625 -125.03057098388672 408.56787109375 174.7598419189453"><title>Neo4j Graph Visualization</title><desc>Created using Neo4j (http://www.neo4j.com/)</desc><g class="layer relationships"><g class="relationship" transform="translate(7.6456773721030515 -95.9279062945807) rotate(412.9127211093857)"><path class="b-outline" fill="#A5ABB6" stroke="none" d="M 25 0.5 L 47.695327774917885 0.5 L 47.695327774917885 -0.5 L 25 -0.5 Z M 85.69532777491789 0.5 L 108.39065554983577 0.5 L 108.39065554983577 3.5 L 115.39065554983577 0 L 108.39065554983577 -3.5 L 108.39065554983577 -0.5 L 85.69532777491789 -0.5 Z"/><text text-anchor="middle" pointer-events="none" font-size="8px" fill="#000000" x="66.69532777491789" y="3" font-family="Helvetica Neue, Helvetica, Arial, sans-serif">HAS_PPI</text></g><g class="relationship" transform="translate(-157.92944308130217 -96.03057242765524) rotate(360.0355266863411)"><path class="b-outline" fill="#A5ABB6" stroke="none" d="M 25 0.5 L 39.28757614143339 0.5 L 39.28757614143339 -0.5 L 25 -0.5 Z M 119.28757614143339 0.5 L 133.57515228286678 0.5 L 133.57515228286678 3.5 L 140.57515228286678 0 L 133.57515228286678 -3.5 L 133.57515228286678 -0.5 L 119.28757614143339 -0.5 Z"/><text text-anchor="middle" pointer-events="none" font-size="8px" fill="#000000" x="79.28757614143339" y="3" font-family="Helvetica Neue, Helvetica, Arial, sans-serif">TRANSCRIBE_INTO</text></g><g class="relationship" transform="translate(-258.2622388921464 20.729268882063565) rotate(310.6727681268598)"><path class="b-outline" fill="#A5ABB6" stroke="none" d="M 25 0.5 L 35.47325908698956 0.5 L 35.47325908698956 -0.5 L 25 -0.5 Z M 111.47325908698956 0.5 L 121.94651817397911 0.5 L 121.94651817397911 3.5 L 128.94651817397911 0 L 121.94651817397911 -3.5 L 121.94651817397911 -0.5 L 111.47325908698956 -0.5 Z"/><text text-anchor="middle" pointer-events="none" font-size="8px" fill="#000000" x="73.47325908698956" y="3" font-family="Helvetica Neue, Helvetica, Arial, sans-serif">HAS_REGULATION</text></g></g><g class="layer nodes"><g class="node" aria-label="graph-node3839" transform="translate(92.3055792115149,16.064223724692468)"><circle class="b-outline" cx="0" cy="0" r="25" fill="#8DCC93" stroke="#5db665" stroke-width="2px"/><text class="caption" text-anchor="middle" pointer-events="none" x="0" y="5" font-size="10px" fill="#2A2C34" font-family="Helvetica Neue, Helvetica, Arial, sans-serif"> JAK2</text></g><g class="node" aria-label="graph-node435" transform="translate(-258.2622388921464,20.729268882063565)"><circle class="b-outline" cx="0" cy="0" r="25" fill="#C990C0" stroke="#b261a5" stroke-width="2px"/><text class="caption" text-anchor="middle" pointer-events="none" x="0" y="5" font-size="10px" fill="#FFFFFF" font-family="Helvetica Neue, Helvetica, Arial, sans-serif"> STAT1</text></g><g class="node" aria-label="graph-node645" transform="translate(7.6456773721030515,-95.9279062945807)"><circle class="b-outline" cx="0" cy="0" r="25" fill="#D9C8AE" stroke="#c0a378" stroke-width="2px"/><text class="caption" text-anchor="middle" pointer-events="none" x="0" y="5" font-size="10px" fill="#2A2C34" font-family="Helvetica Neue, Helvetica, Arial, sans-serif"> STAT3</text></g><g class="node" aria-label="graph-node72" transform="translate(-157.92944308130217,-96.03057242765524)"><circle class="b-outline" cx="0" cy="0" r="25" fill="#F79767" stroke="#f36924" stroke-width="2px"/><text class="caption" text-anchor="middle" pointer-events="none" x="0" y="5" font-size="10px" fill="#FFFFFF" font-family="Helvetica Neue, Helvetica, Arial, sans-serif"> PTGS2</text></g></g></svg>