<svg xmlns="http://www.w3.org/2000/svg" width="510.9986877441406" height="493.8953857421875" viewBox="-271.30987548828125 -235.1228485107422 510.9986877441406 493.8953857421875"><title>Neo4j Graph Visualization</title><desc>Created using Neo4j (http://www.neo4j.com/)</desc><g class="layer relationships"><g class="relationship" transform="translate(-185.52556781121234 165.04796525419437) rotate(318.17489403136466)"><path class="b-outline" fill="#A5ABB6" stroke="none" d="M 25 0.5 L 77.7086035479362 0.5 L 77.7086035479362 -0.5 L 25 -0.5 Z M 153.7086035479362 0.5 L 206.4172070958724 0.5 L 206.4172070958724 3.5 L 213.4172070958724 0 L 206.4172070958724 -3.5 L 206.4172070958724 -0.5 L 153.7086035479362 -0.5 Z"/><text text-anchor="middle" pointer-events="none" font-size="8px" fill="#000000" x="115.7086035479362" y="3" font-family="Helvetica Neue, Helvetica, Arial, sans-serif">HAS_REGULATION</text></g><g class="relationship" transform="translate(-7.860911773824483 6.057290576360593) rotate(400.34628522938084)"><path class="b-outline" fill="#A5ABB6" stroke="none" d="M 25 0.5 L 68.81459660017073 0.5 L 68.81459660017073 -0.5 L 25 -0.5 Z M 143.81459660017072 0.5 L 187.62919320034146 0.5 L 187.62919320034146 3.5 L 194.62919320034146 0 L 187.62919320034146 -3.5 L 187.62919320034146 -0.5 L 143.81459660017072 -0.5 Z"/><text text-anchor="middle" pointer-events="none" font-size="8px" fill="#000000" x="106.31459660017073" y="3" font-family="Helvetica Neue, Helvetica, Arial, sans-serif">HAS_REFERENCE</text></g><g class="relationship" transform="translate(-7.860911773824483 6.057290576360593) rotate(379.86852445810854)"><path class="b-outline" fill="#A5ABB6" stroke="none" d="M 25 0.5 L 75.19114318555658 0.5 L 75.19114318555658 -0.5 L 25 -0.5 Z M 150.1911431855566 0.5 L 200.38228637111317 0.5 L 200.38228637111317 3.5 L 207.38228637111317 0 L 200.38228637111317 -3.5 L 200.38228637111317 -0.5 L 150.1911431855566 -0.5 Z"/><text text-anchor="middle" pointer-events="none" font-size="8px" fill="#000000" x="112.69114318555658" y="3" font-family="Helvetica Neue, Helvetica, Arial, sans-serif">HAS_REFERENCE</text></g><g class="relationship" transform="translate(-7.860911773824483 6.057290576360593) rotate(350.0994582447563)"><path class="b-outline" fill="#A5ABB6" stroke="none" d="M 25 0.5 L 69.315752445562 0.5 L 69.315752445562 -0.5 L 25 -0.5 Z M 144.315752445562 0.5 L 188.631504891124 0.5 L 188.631504891124 3.5 L 195.631504891124 0 L 188.631504891124 -3.5 L 188.631504891124 -0.5 L 144.315752445562 -0.5 Z"/><text text-anchor="middle" pointer-events="none" font-size="8px" fill="#000000" x="106.815752445562" y="3" font-family="Helvetica Neue, Helvetica, Arial, sans-serif">HAS_REFERENCE</text></g><g class="relationship" transform="translate(-7.860911773824483 6.057290576360593) rotate(315.36523328851854)"><path class="b-outline" fill="#A5ABB6" stroke="none" d="M 25 0.5 L 66.84585653507943 0.5 L 66.84585653507943 -0.5 L 25 -0.5 Z M 141.84585653507943 0.5 L 183.69171307015887 0.5 L 183.69171307015887 3.5 L 190.69171307015887 0 L 183.69171307015887 -3.5 L 183.69171307015887 -0.5 L 141.84585653507943 -0.5 Z"/><text text-anchor="middle" pointer-events="none" font-size="8px" fill="#000000" x="104.34585653507943" y="3" font-family="Helvetica Neue, Helvetica, Arial, sans-serif">HAS_REFERENCE</text></g><g class="relationship" transform="translate(-7.860911773824483 6.057290576360593) rotate(284.5543583157958)"><path class="b-outline" fill="#A5ABB6" stroke="none" d="M 25 0.5 L 64.00133569318808 0.5 L 64.00133569318808 -0.5 L 25 -0.5 Z M 139.00133569318808 0.5 L 178.00267138637616 0.5 L 178.00267138637616 3.5 L 185.00267138637616 0 L 178.00267138637616 -3.5 L 178.00267138637616 -0.5 L 139.00133569318808 -0.5 Z"/><text text-anchor="middle" pointer-events="none" font-size="8px" fill="#000000" x="101.50133569318808" y="3" font-family="Helvetica Neue, Helvetica, Arial, sans-serif">HAS_REFERENCE</text></g><g class="relationship" transform="translate(-7.860911773824483 6.057290576360593) rotate(220.87434074439466)"><path class="b-outline" fill="#A5ABB6" stroke="none" d="M 25 0.5 L 68.40741369032304 0.5 L 68.40741369032304 -0.5 L 25 -0.5 Z M 143.40741369032304 0.5 L 186.81482738064608 0.5 L 186.81482738064608 3.5 L 193.81482738064608 0 L 186.81482738064608 -3.5 L 186.81482738064608 -0.5 L 143.40741369032304 -0.5 Z"/><text text-anchor="middle" pointer-events="none" font-size="8px" fill="#000000" x="105.90741369032304" y="3" transform="rotate(180 105.90741369032304 0)" font-family="Helvetica Neue, Helvetica, Arial, sans-serif">HAS_REFERENCE</text></g><g class="relationship" transform="translate(-7.860911773824483 6.057290576360593) rotate(255.13361571443824)"><path class="b-outline" fill="#A5ABB6" stroke="none" d="M 25 0.5 L 68.7642317205928 0.5 L 68.7642317205928 -0.5 L 25 -0.5 Z M 143.76423172059282 0.5 L 187.5284634411856 0.5 L 187.5284634411856 3.5 L 194.5284634411856 0 L 187.5284634411856 -3.5 L 187.5284634411856 -0.5 L 143.76423172059282 -0.5 Z"/><text text-anchor="middle" pointer-events="none" font-size="8px" fill="#000000" x="106.2642317205928" y="3" transform="rotate(180 106.2642317205928 0)" font-family="Helvetica Neue, Helvetica, Arial, sans-serif">HAS_REFERENCE</text></g><g class="relationship" transform="translate(-242.3098700751844 27.783886070806915) rotate(354.70547039696316)"><path class="b-outline" fill="#A5ABB6" stroke="none" d="M 25 0.5 L 76.22675885325741 0.5 L 76.22675885325741 -0.5 L 25 -0.5 Z M 152.22675885325742 0.5 L 203.45351770651482 0.5 L 203.45351770651482 3.5 L 210.45351770651482 0 L 203.45351770651482 -3.5 L 203.45351770651482 -0.5 L 152.22675885325742 -0.5 Z"/><text text-anchor="middle" pointer-events="none" font-size="8px" fill="#000000" x="114.22675885325741" y="3" font-family="Helvetica Neue, Helvetica, Arial, sans-serif">HAS_REGULATION</text></g><g class="relationship" transform="translate(-14.300315033518842 229.77255378370864) rotate(271.64874216033206)"><path class="b-outline" fill="#A5ABB6" stroke="none" d="M 25 0.5 L 70.40395983417429 0.5 L 70.40395983417429 -0.5 L 25 -0.5 Z M 146.4039598341743 0.5 L 191.80791966834857 0.5 L 191.80791966834857 3.5 L 198.80791966834857 0 L 191.80791966834857 -3.5 L 191.80791966834857 -0.5 L 146.4039598341743 -0.5 Z"/><text text-anchor="middle" pointer-events="none" font-size="8px" fill="#000000" x="108.40395983417429" y="3" font-family="Helvetica Neue, Helvetica, Arial, sans-serif">HAS_REGULATION</text></g><g class="relationship" transform="translate(-226.21661072768205 106.71077123510463) rotate(335.2521371092246)"><path class="b-outline" fill="#A5ABB6" stroke="none" d="M 25 0.5 L 78.71889871641213 0.5 L 78.71889871641213 -0.5 L 25 -0.5 Z M 154.71889871641213 0.5 L 208.43779743282425 0.5 L 208.43779743282425 3.5 L 215.43779743282425 0 L 208.43779743282425 -3.5 L 208.43779743282425 -0.5 L 154.71889871641213 -0.5 Z"/><text text-anchor="middle" pointer-events="none" font-size="8px" fill="#000000" x="116.71889871641213" y="3" font-family="Helvetica Neue, Helvetica, Arial, sans-serif">HAS_REGULATION</text></g><g class="relationship" transform="translate(-231.5829843971493 -66.18205795206367) rotate(377.8951501803622)"><path class="b-outline" fill="#A5ABB6" stroke="none" d="M 25 0.5 L 76.04795750531714 0.5 L 76.04795750531714 -0.5 L 25 -0.5 Z M 152.04795750531713 0.5 L 203.0959150106343 0.5 L 203.0959150106343 3.5 L 210.0959150106343 0 L 203.0959150106343 -3.5 L 203.0959150106343 -0.5 L 152.04795750531713 -0.5 Z"/><text text-anchor="middle" pointer-events="none" font-size="8px" fill="#000000" x="114.04795750531714" y="3" font-family="Helvetica Neue, Helvetica, Arial, sans-serif">HAS_REGULATION</text></g><g class="relationship" transform="translate(-111.083246518754 210.70601061379634) rotate(296.76582372816074)"><path class="b-outline" fill="#A5ABB6" stroke="none" d="M 25 0.5 L 73.10360923979994 0.5 L 73.10360923979994 -0.5 L 25 -0.5 Z M 149.10360923979994 0.5 L 197.20721847959987 0.5 L 197.20721847959987 3.5 L 204.20721847959987 0 L 197.20721847959987 -3.5 L 197.20721847959987 -0.5 L 149.10360923979994 -0.5 Z"/><text text-anchor="middle" pointer-events="none" font-size="8px" fill="#000000" x="111.10360923979994" y="3" font-family="Helvetica Neue, Helvetica, Arial, sans-serif">HAS_REGULATION</text></g><g class="relationship" transform="translate(78.74065870176616 215.1958394320702) rotate(247.5061860231582)"><path class="b-outline" fill="#A5ABB6" stroke="none" d="M 25 0.5 L 71.67990615200951 0.5 L 71.67990615200951 -0.5 L 25 -0.5 Z M 147.6799061520095 0.5 L 194.35981230401902 0.5 L 194.35981230401902 3.5 L 201.35981230401902 0 L 194.35981230401902 -3.5 L 194.35981230401902 -0.5 L 147.6799061520095 -0.5 Z"/><text text-anchor="middle" pointer-events="none" font-size="8px" fill="#000000" x="109.67990615200951" y="3" transform="rotate(180 109.67990615200951 0)" font-family="Helvetica Neue, Helvetica, Arial, sans-serif">HAS_REGULATION</text></g></g><g class="layer nodes"><g class="node" aria-label="graph-node4" transform="translate(-185.52556781121234,165.04796525419437)"><circle class="b-outline" cx="0" cy="0" r="25" fill="#C990C0" stroke="#b261a5" stroke-width="2px"/><text class="caption" text-anchor="middle" pointer-events="none" x="0" y="5" font-size="10px" fill="#FFFFFF" font-family="Helvetica Neue, Helvetica, Arial, sans-serif"> AR</text></g><g class="node" aria-label="graph-node74" transform="translate(-7.860911773824483,6.057290576360593)"><circle class="b-outline" cx="0" cy="0" r="25" fill="#F79767" stroke="#f36924" stroke-width="2px"/><text class="caption" text-anchor="middle" pointer-events="none" x="0" y="5" font-size="10px" fill="#FFFFFF" font-family="Helvetica Neue, Helvetica, Arial, sans-serif"> CTNNB1</text></g><g class="node" aria-label="graph-node112" transform="translate(159.52850814740023,148.2464765374203)"><circle class="b-outline" cx="0" cy="0" r="25" fill="#57C7E3" stroke="#23b3d7" stroke-width="2px"/><text class="caption" text-anchor="middle" pointer-events="none" x="0" y="5" font-size="10px" fill="#2A2C34" font-family="Helvetica Neue, Helvetica, Arial, sans-serif"> 185351…</text></g><g class="node" aria-label="graph-node186" transform="translate(210.68881278472924,85.03541991889665)"><circle class="b-outline" cx="0" cy="0" r="25" fill="#57C7E3" stroke="#23b3d7" stroke-width="2px"/><text class="caption" text-anchor="middle" pointer-events="none" x="0" y="5" font-size="10px" fill="#2A2C34" font-family="Helvetica Neue, Helvetica, Arial, sans-serif"> 166284…</text></g><g class="node" aria-label="graph-node362" transform="translate(209.48488265632267,-31.877740648752273)"><circle class="b-outline" cx="0" cy="0" r="25" fill="#57C7E3" stroke="#23b3d7" stroke-width="2px"/><text class="caption" text-anchor="middle" pointer-events="none" x="0" y="5" font-size="10px" fill="#2A2C34" font-family="Helvetica Neue, Helvetica, Arial, sans-serif"> 207354…</text></g><g class="node" aria-label="graph-node491" transform="translate(145.62527953270086,-145.48446659095106)"><circle class="b-outline" cx="0" cy="0" r="25" fill="#57C7E3" stroke="#23b3d7" stroke-width="2px"/><text class="caption" text-anchor="middle" pointer-events="none" x="0" y="5" font-size="10px" fill="#2A2C34" font-family="Helvetica Neue, Helvetica, Arial, sans-serif"> 222455…</text></g><g class="node" aria-label="graph-node494" transform="translate(44.91242427231389,-197.20632395407043)"><circle class="b-outline" cx="0" cy="0" r="25" fill="#57C7E3" stroke="#23b3d7" stroke-width="2px"/><text class="caption" text-anchor="middle" pointer-events="none" x="0" y="5" font-size="10px" fill="#2A2C34" font-family="Helvetica Neue, Helvetica, Arial, sans-serif"> 210843…</text></g><g class="node" aria-label="graph-node541" transform="translate(-173.31700204388446,-137.13562431179898)"><circle class="b-outline" cx="0" cy="0" r="25" fill="#57C7E3" stroke="#23b3d7" stroke-width="2px"/><text class="caption" text-anchor="middle" pointer-events="none" x="0" y="5" font-size="10px" fill="#2A2C34" font-family="Helvetica Neue, Helvetica, Arial, sans-serif"> 194110…</text></g><g class="node" aria-label="graph-node573" transform="translate(-64.18440133062447,-206.1228470072337)"><circle class="b-outline" cx="0" cy="0" r="25" fill="#57C7E3" stroke="#23b3d7" stroke-width="2px"/><text class="caption" text-anchor="middle" pointer-events="none" x="0" y="5" font-size="10px" fill="#2A2C34" font-family="Helvetica Neue, Helvetica, Arial, sans-serif"> 242240…</text></g><g class="node" aria-label="graph-node39" transform="translate(-242.3098700751844,27.783886070806915)"><circle class="b-outline" cx="0" cy="0" r="25" fill="#C990C0" stroke="#b261a5" stroke-width="2px"/><text class="caption" text-anchor="middle" pointer-events="none" x="0" y="5" font-size="10px" fill="#FFFFFF" font-family="Helvetica Neue, Helvetica, Arial, sans-serif"> ESR1</text></g><g class="node" aria-label="graph-node259" transform="translate(-14.300315033518842,229.77255378370864)"><circle class="b-outline" cx="0" cy="0" r="25" fill="#C990C0" stroke="#b261a5" stroke-width="2px"/><text class="caption" text-anchor="middle" pointer-events="none" x="0" y="5" font-size="10px" fill="#FFFFFF" font-family="Helvetica Neue, Helvetica, Arial, sans-serif"> NELFCD</text></g><g class="node" aria-label="graph-node425" transform="translate(-226.21661072768205,106.71077123510463)"><circle class="b-outline" cx="0" cy="0" r="25" fill="#C990C0" stroke="#b261a5" stroke-width="2px"/><text class="caption" text-anchor="middle" pointer-events="none" x="0" y="5" font-size="10px" fill="#FFFFFF" font-family="Helvetica Neue, Helvetica, Arial, sans-serif"> SIRT1</text></g><g class="node" aria-label="graph-node427" transform="translate(-231.5829843971493,-66.18205795206367)"><circle class="b-outline" cx="0" cy="0" r="25" fill="#C990C0" stroke="#b261a5" stroke-width="2px"/><text class="caption" text-anchor="middle" pointer-events="none" x="0" y="5" font-size="10px" fill="#FFFFFF" font-family="Helvetica Neue, Helvetica, Arial, sans-serif"> SOX6</text></g><g class="node" aria-label="graph-node447" transform="translate(-111.083246518754,210.70601061379634)"><circle class="b-outline" cx="0" cy="0" r="25" fill="#C990C0" stroke="#b261a5" stroke-width="2px"/><text class="caption" text-anchor="middle" pointer-events="none" x="0" y="5" font-size="10px" fill="#FFFFFF" font-family="Helvetica Neue, Helvetica, Arial, sans-serif"> TP53</text></g><g class="node" aria-label="graph-node566" transform="translate(78.74065870176616,215.1958394320702)"><circle class="b-outline" cx="0" cy="0" r="25" fill="#C990C0" stroke="#b261a5" stroke-width="2px"/><text class="caption" text-anchor="middle" pointer-events="none" x="0" y="5" font-size="10px" fill="#FFFFFF" font-family="Helvetica Neue, Helvetica, Arial, sans-serif"> ZNF24</text></g></g></svg>