<svg xmlns="http://www.w3.org/2000/svg" width="1024.65625" height="510.78875732421875" viewBox="-420.8368835449219 -153.2294921875 1024.65625 510.78875732421875"><title>Neo4j Graph Visualization</title><desc>Created using Neo4j (http://www.neo4j.com/)</desc><g class="layer relationships"><g class="relationship" transform="translate(-391.8368861833348 107.57346962474577) rotate(359.9967213899081)"><path class="b-outline" fill="#A5ABB6" stroke="none" d="M 25 0.5 L 48.103185405086435 0.5 L 48.103185405086435 -0.5 L 25 -0.5 Z M 128.10318540508644 0.5 L 151.20637081017287 0.5 L 151.20637081017287 3.5 L 158.20637081017287 0 L 151.20637081017287 -3.5 L 151.20637081017287 -0.5 L 128.10318540508644 -0.5 Z"/><text text-anchor="middle" pointer-events="none" font-size="8px" fill="#000000" x="88.10318540508644" y="3" font-family="Helvetica Neue, Helvetica, Arial, sans-serif">TRANSCRIBE_INTO</text></g><g class="relationship" transform="translate(-208.63051567310916 107.56298609068764) rotate(353.3849539350979)"><path class="b-outline" fill="#A5ABB6" stroke="none" d="M 25 0.5 L 184.71236821395217 0.5 L 184.71236821395217 -0.5 L 25 -0.5 Z M 222.71236821395217 0.5 L 382.42473642790435 0.5 L 382.42473642790435 3.5 L 389.42473642790435 0 L 382.42473642790435 -3.5 L 382.42473642790435 -0.5 L 222.71236821395217 -0.5 Z"/><text text-anchor="middle" pointer-events="none" font-size="8px" fill="#000000" x="203.71236821395217" y="3" font-family="Helvetica Neue, Helvetica, Arial, sans-serif">HAS_PPI</text></g><g class="relationship" transform="translate(203.0352081574107 59.82208133981191) rotate(367.35019851509276)"><path class="b-outline" fill="#A5ABB6" stroke="none" d="M 25 0.5 L 159.43223179445383 0.5 L 159.43223179445383 -0.5 L 25 -0.5 Z M 208.43223179445383 0.5 L 342.86446358890765 0.5 L 342.86446358890765 3.5 L 349.86446358890765 0 L 342.86446358890765 -3.5 L 342.86446358890765 -0.5 L 208.43223179445383 -0.5 Z"/><text text-anchor="middle" pointer-events="none" font-size="8px" fill="#000000" x="183.93223179445383" y="3" font-family="Helvetica Neue, Helvetica, Arial, sans-serif">HAS_LEVEL</text></g><g class="relationship" transform="translate(-208.63051567310916 107.56298609068764) rotate(377.72417227844477)"><path class="b-outline" fill="#A5ABB6" stroke="none" d="M 25 0.5 L 195.36449511805793 0.5 L 195.36449511805793 -0.5 L 25 -0.5 Z M 233.36449511805793 0.5 L 403.72899023611586 0.5 L 403.72899023611586 3.5 L 410.72899023611586 0 L 403.72899023611586 -3.5 L 403.72899023611586 -0.5 L 233.36449511805793 -0.5 Z"/><text text-anchor="middle" pointer-events="none" font-size="8px" fill="#000000" x="214.36449511805793" y="3" font-family="Helvetica Neue, Helvetica, Arial, sans-serif">HAS_PPI</text></g><g class="relationship" transform="translate(206.41578289320626 240.21411868512178) rotate(340.22742351997704)"><path class="b-outline" fill="#A5ABB6" stroke="none" d="M 25 0.5 L 167.74217677943568 0.5 L 167.74217677943568 -0.5 L 25 -0.5 Z M 216.74217677943568 0.5 L 359.48435355887136 0.5 L 359.48435355887136 3.5 L 366.48435355887136 0 L 359.48435355887136 -3.5 L 359.48435355887136 -0.5 L 216.74217677943568 -0.5 Z"/><text text-anchor="middle" pointer-events="none" font-size="8px" fill="#000000" x="192.24217677943568" y="3" font-family="Helvetica Neue, Helvetica, Arial, sans-serif">HAS_LEVEL</text></g><g class="relationship" transform="translate(-208.63051567310916 107.56298609068764) rotate(335.64956550678016)"><path class="b-outline" fill="#A5ABB6" stroke="none" d="M 25 0.5 L 105.62752921628572 0.5 L 105.62752921628572 -0.5 L 25 -0.5 Z M 143.62752921628572 0.5 L 224.25505843257145 0.5 L 224.25505843257145 3.5 L 231.25505843257145 0 L 224.25505843257145 -3.5 L 224.25505843257145 -0.5 L 143.62752921628572 -0.5 Z"/><text text-anchor="middle" pointer-events="none" font-size="8px" fill="#000000" x="124.62752921628572" y="3" font-family="Helvetica Neue, Helvetica, Arial, sans-serif">HAS_PPI</text></g><g class="relationship" transform="translate(24.82826929848041 1.9048075531522806) rotate(370.89632831454827)"><path class="b-outline" fill="#A5ABB6" stroke="none" d="M 25 0.5 L 252.0444914260197 0.5 L 252.0444914260197 -0.5 L 25 -0.5 Z M 301.0444914260197 0.5 L 528.0889828520394 0.5 L 528.0889828520394 3.5 L 535.0889828520394 0 L 528.0889828520394 -3.5 L 528.0889828520394 -0.5 L 301.0444914260197 -0.5 Z"/><text text-anchor="middle" pointer-events="none" font-size="8px" fill="#000000" x="276.5444914260197" y="3" font-family="Helvetica Neue, Helvetica, Arial, sans-serif">HAS_LEVEL</text></g><g class="relationship" transform="translate(-208.63051567310916 107.56298609068764) rotate(390.69356449760966)"><path class="b-outline" fill="#A5ABB6" stroke="none" d="M 25 0.5 L 156.18071592767734 0.5 L 156.18071592767734 -0.5 L 25 -0.5 Z M 194.18071592767734 0.5 L 325.3614318553547 0.5 L 325.3614318553547 3.5 L 332.3614318553547 0 L 325.3614318553547 -3.5 L 325.3614318553547 -0.5 L 194.18071592767734 -0.5 Z"/><text text-anchor="middle" pointer-events="none" font-size="8px" fill="#000000" x="175.18071592767734" y="3" font-family="Helvetica Neue, Helvetica, Arial, sans-serif">HAS_PPI</text></g><g class="relationship" transform="translate(98.66801407771077 289.9768194221918) rotate(339.06089302984424)"><path class="b-outline" fill="#A5ABB6" stroke="none" d="M 25 0.5 L 226.90968926874217 0.5 L 226.90968926874217 -0.5 L 25 -0.5 Z M 275.90968926874217 0.5 L 477.81937853748434 0.5 L 477.81937853748434 3.5 L 484.81937853748434 0 L 477.81937853748434 -3.5 L 477.81937853748434 -0.5 L 275.90968926874217 -0.5 Z"/><text text-anchor="middle" pointer-events="none" font-size="8px" fill="#000000" x="251.40968926874217" y="3" font-family="Helvetica Neue, Helvetica, Arial, sans-serif">HAS_LEVEL</text></g><g class="relationship" transform="translate(-208.63051567310916 107.56298609068764) rotate(376.4600059349208)"><path class="b-outline" fill="#A5ABB6" stroke="none" d="M 25 0.5 L 153.1107251326344 0.5 L 153.1107251326344 -0.5 L 25 -0.5 Z M 191.1107251326344 0.5 L 319.2214502652688 0.5 L 319.2214502652688 3.5 L 326.2214502652688 0 L 319.2214502652688 -3.5 L 319.2214502652688 -0.5 L 191.1107251326344 -0.5 Z"/><text text-anchor="middle" pointer-events="none" font-size="8px" fill="#000000" x="172.1107251326344" y="3" font-family="Helvetica Neue, Helvetica, Arial, sans-serif">HAS_PPI</text></g><g class="relationship" transform="translate(128.19709000010783 207.08017647951692) rotate(347.4649629752204)"><path class="b-outline" fill="#A5ABB6" stroke="none" d="M 25 0.5 L 200.76405226497963 0.5 L 200.76405226497963 -0.5 L 25 -0.5 Z M 249.76405226497963 0.5 L 425.52810452995925 0.5 L 425.52810452995925 3.5 L 432.52810452995925 0 L 425.52810452995925 -3.5 L 425.52810452995925 -0.5 L 249.76405226497963 -0.5 Z"/><text text-anchor="middle" pointer-events="none" font-size="8px" fill="#000000" x="225.26405226497963" y="3" font-family="Helvetica Neue, Helvetica, Arial, sans-serif">HAS_LEVEL</text></g><g class="relationship" transform="translate(-208.63051567310916 107.56298609068764) rotate(389.25076548740043)"><path class="b-outline" fill="#A5ABB6" stroke="none" d="M 25 0.5 L 203.63731870635362 0.5 L 203.63731870635362 -0.5 L 25 -0.5 Z M 241.63731870635362 0.5 L 420.27463741270725 0.5 L 420.27463741270725 3.5 L 427.27463741270725 0 L 420.27463741270725 -3.5 L 420.27463741270725 -0.5 L 241.63731870635362 -0.5 Z"/><text text-anchor="middle" pointer-events="none" font-size="8px" fill="#000000" x="222.63731870635362" y="3" font-family="Helvetica Neue, Helvetica, Arial, sans-serif">HAS_PPI</text></g><g class="relationship" transform="translate(185.97434703397857 328.5592529702806) rotate(330.41284235273645)"><path class="b-outline" fill="#A5ABB6" stroke="none" d="M 25 0.5 L 195.57546664492 0.5 L 195.57546664492 -0.5 L 25 -0.5 Z M 244.57546664492 0.5 L 415.15093328984 0.5 L 415.15093328984 3.5 L 422.15093328984 0 L 415.15093328984 -3.5 L 415.15093328984 -0.5 L 244.57546664492 -0.5 Z"/><text text-anchor="middle" pointer-events="none" font-size="8px" fill="#000000" x="220.07546664492" y="3" font-family="Helvetica Neue, Helvetica, Arial, sans-serif">HAS_LEVEL</text></g><g class="relationship" transform="translate(-208.63051567310916 107.56298609068764) rotate(358.9758812248839)"><path class="b-outline" fill="#A5ABB6" stroke="none" d="M 25 0.5 L 226.99519201310997 0.5 L 226.99519201310997 -0.5 L 25 -0.5 Z M 264.99519201311 0.5 L 466.99038402621994 0.5 L 466.99038402621994 3.5 L 473.99038402621994 0 L 466.99038402621994 -3.5 L 466.99038402621994 -0.5 L 264.99519201311 -0.5 Z"/><text text-anchor="middle" pointer-events="none" font-size="8px" fill="#000000" x="245.99519201310997" y="3" font-family="Helvetica Neue, Helvetica, Arial, sans-serif">HAS_PPI</text></g><g class="relationship" transform="translate(290.2801596010977 98.64438485117803) rotate(361.8389142990406)"><path class="b-outline" fill="#A5ABB6" stroke="none" d="M 25 0.5 L 114.3428832331222 0.5 L 114.3428832331222 -0.5 L 25 -0.5 Z M 163.3428832331222 0.5 L 252.6857664662444 0.5 L 252.6857664662444 3.5 L 259.6857664662444 0 L 252.6857664662444 -3.5 L 252.6857664662444 -0.5 L 163.3428832331222 -0.5 Z"/><text text-anchor="middle" pointer-events="none" font-size="8px" fill="#000000" x="138.8428832331222" y="3" font-family="Helvetica Neue, Helvetica, Arial, sans-serif">HAS_LEVEL</text></g><g class="relationship" transform="translate(-208.63051567310916 107.56298609068764) rotate(370.14632579932265)"><path class="b-outline" fill="#A5ABB6" stroke="none" d="M 25 0.5 L 231.8803559192641 0.5 L 231.8803559192641 -0.5 L 25 -0.5 Z M 269.8803559192641 0.5 L 476.7607118385282 0.5 L 476.7607118385282 3.5 L 483.7607118385282 0 L 476.7607118385282 -3.5 L 476.7607118385282 -0.5 L 269.8803559192641 -0.5 Z"/><text text-anchor="middle" pointer-events="none" font-size="8px" fill="#000000" x="250.8803559192641" y="3" font-family="Helvetica Neue, Helvetica, Arial, sans-serif">HAS_PPI</text></g><g class="relationship" transform="translate(292.17372177227685 197.1876348609415) rotate(342.44654750407415)"><path class="b-outline" fill="#A5ABB6" stroke="none" d="M 25 0.5 L 120.22473130755077 0.5 L 120.22473130755077 -0.5 L 25 -0.5 Z M 169.22473130755077 0.5 L 264.44946261510154 0.5 L 264.44946261510154 3.5 L 271.44946261510154 0 L 264.44946261510154 -3.5 L 264.44946261510154 -0.5 L 169.22473130755077 -0.5 Z"/><text text-anchor="middle" pointer-events="none" font-size="8px" fill="#000000" x="144.72473130755077" y="3" font-family="Helvetica Neue, Helvetica, Arial, sans-serif">HAS_LEVEL</text></g><g class="relationship" transform="translate(-208.63051567310916 107.56298609068764) rotate(380.71787119903934)"><path class="b-outline" fill="#A5ABB6" stroke="none" d="M 25 0.5 L 239.25488506747723 0.5 L 239.25488506747723 -0.5 L 25 -0.5 Z M 277.25488506747723 0.5 L 491.50977013495446 0.5 L 491.50977013495446 3.5 L 498.50977013495446 0 L 491.50977013495446 -3.5 L 491.50977013495446 -0.5 L 277.25488506747723 -0.5 Z"/><text text-anchor="middle" pointer-events="none" font-size="8px" fill="#000000" x="258.25488506747723" y="3" font-family="Helvetica Neue, Helvetica, Arial, sans-serif">HAS_PPI</text></g><g class="relationship" transform="translate(281.0258316494853 292.76325864299133) rotate(327.8039390588559)"><path class="b-outline" fill="#A5ABB6" stroke="none" d="M 25 0.5 L 145.58965641880246 0.5 L 145.58965641880246 -0.5 L 25 -0.5 Z M 194.58965641880246 0.5 L 315.1793128376049 0.5 L 315.1793128376049 3.5 L 322.1793128376049 0 L 315.1793128376049 -3.5 L 315.1793128376049 -0.5 L 194.58965641880246 -0.5 Z"/><text text-anchor="middle" pointer-events="none" font-size="8px" fill="#000000" x="170.08965641880246" y="3" font-family="Helvetica Neue, Helvetica, Arial, sans-serif">HAS_LEVEL</text></g><g class="relationship" transform="translate(-208.63051567310916 107.56298609068764) rotate(361.68870300854473)"><path class="b-outline" fill="#A5ABB6" stroke="none" d="M 25 0.5 L 150.43020365020894 0.5 L 150.43020365020894 -0.5 L 25 -0.5 Z M 188.43020365020894 0.5 L 313.8604073004179 0.5 L 313.8604073004179 3.5 L 320.8604073004179 0 L 313.8604073004179 -3.5 L 313.8604073004179 -0.5 L 188.43020365020894 -0.5 Z"/><text text-anchor="middle" pointer-events="none" font-size="8px" fill="#000000" x="169.43020365020894" y="3" font-family="Helvetica Neue, Helvetica, Arial, sans-serif">HAS_PPI</text></g><g class="relationship" transform="translate(137.07968098492495 117.75520197705545) rotate(358.69454953288755)"><path class="b-outline" fill="#A5ABB6" stroke="none" d="M 25 0.5 L 190.9266385713121 0.5 L 190.9266385713121 -0.5 L 25 -0.5 Z M 239.9266385713121 0.5 L 405.8532771426242 0.5 L 405.8532771426242 3.5 L 412.8532771426242 0 L 405.8532771426242 -3.5 L 405.8532771426242 -0.5 L 239.9266385713121 -0.5 Z"/><text text-anchor="middle" pointer-events="none" font-size="8px" fill="#000000" x="215.4266385713121" y="3" font-family="Helvetica Neue, Helvetica, Arial, sans-serif">HAS_LEVEL</text></g><g class="relationship" transform="translate(-208.63051567310916 107.56298609068764) rotate(353.40012869253064)"><path class="b-outline" fill="#A5ABB6" stroke="none" d="M 25 0.5 L 263.8022154593934 0.5 L 263.8022154593934 -0.5 L 25 -0.5 Z M 301.8022154593934 0.5 L 540.6044309187868 0.5 L 540.6044309187868 3.5 L 547.6044309187868 0 L 540.6044309187868 -3.5 L 540.6044309187868 -0.5 L 301.8022154593934 -0.5 Z"/><text text-anchor="middle" pointer-events="none" font-size="8px" fill="#000000" x="282.8022154593934" y="3" font-family="Helvetica Neue, Helvetica, Arial, sans-serif">HAS_PPI</text></g><g class="relationship" transform="translate(360.17927928659486 41.750742049574974) rotate(377.099316934575)"><path class="b-outline" fill="#A5ABB6" stroke="none" d="M 25 0.5 L 84.28333018099161 0.5 L 84.28333018099161 -0.5 L 25 -0.5 Z M 133.2833301809916 0.5 L 192.56666036198322 0.5 L 192.56666036198322 3.5 L 199.56666036198322 0 L 192.56666036198322 -3.5 L 192.56666036198322 -0.5 L 133.2833301809916 -0.5 Z"/><text text-anchor="middle" pointer-events="none" font-size="8px" fill="#000000" x="108.78333018099161" y="3" font-family="Helvetica Neue, Helvetica, Arial, sans-serif">HAS_LEVEL</text></g><g class="relationship" transform="translate(-208.63051567310916 107.56298609068764) rotate(337.2290571366093)"><path class="b-outline" fill="#A5ABB6" stroke="none" d="M 25 0.5 L 232.85821859378154 0.5 L 232.85821859378154 -0.5 L 25 -0.5 Z M 270.85821859378154 0.5 L 478.7164371875631 0.5 L 478.7164371875631 3.5 L 485.7164371875631 0 L 478.7164371875631 -3.5 L 478.7164371875631 -0.5 L 270.85821859378154 -0.5 Z"/><text text-anchor="middle" pointer-events="none" font-size="8px" fill="#000000" x="251.85821859378154" y="3" font-family="Helvetica Neue, Helvetica, Arial, sans-serif">HAS_PPI</text></g><g class="relationship" transform="translate(262.28045703832066 -90.10879994245636) rotate(392.34055576747323)"><path class="b-outline" fill="#A5ABB6" stroke="none" d="M 25 0.5 L 156.95975804462623 0.5 L 156.95975804462623 -0.5 L 25 -0.5 Z M 205.95975804462623 0.5 L 337.91951608925245 0.5 L 337.91951608925245 3.5 L 344.91951608925245 0 L 337.91951608925245 -3.5 L 337.91951608925245 -0.5 L 205.95975804462623 -0.5 Z"/><text text-anchor="middle" pointer-events="none" font-size="8px" fill="#000000" x="181.45975804462623" y="3" font-family="Helvetica Neue, Helvetica, Arial, sans-serif">HAS_LEVEL</text></g><g class="relationship" transform="translate(-208.63051567310916 107.56298609068764) rotate(366.19395376431595)"><path class="b-outline" fill="#A5ABB6" stroke="none" d="M 25 0.5 L 189.82154819951495 0.5 L 189.82154819951495 -0.5 L 25 -0.5 Z M 227.82154819951495 0.5 L 392.6430963990299 0.5 L 392.6430963990299 3.5 L 399.6430963990299 0 L 392.6430963990299 -3.5 L 392.6430963990299 -0.5 L 227.82154819951495 -0.5 Z"/><text text-anchor="middle" pointer-events="none" font-size="8px" fill="#000000" x="208.82154819951495" y="3" font-family="Helvetica Neue, Helvetica, Arial, sans-serif">HAS_PPI</text></g><g class="relationship" transform="translate(213.5336651855952 153.37961756065673) rotate(352.80643296535595)"><path class="b-outline" fill="#A5ABB6" stroke="none" d="M 25 0.5 L 154.07598581713373 0.5 L 154.07598581713373 -0.5 L 25 -0.5 Z M 203.07598581713373 0.5 L 332.15197163426745 0.5 L 332.15197163426745 3.5 L 339.15197163426745 0 L 332.15197163426745 -3.5 L 332.15197163426745 -0.5 L 203.07598581713373 -0.5 Z"/><text text-anchor="middle" pointer-events="none" font-size="8px" fill="#000000" x="178.57598581713373" y="3" font-family="Helvetica Neue, Helvetica, Arial, sans-serif">HAS_LEVEL</text></g><g class="relationship" transform="translate(-208.63051567310916 107.56298609068764) rotate(346.66193995562344)"><path class="b-outline" fill="#A5ABB6" stroke="none" d="M 25 0.5 L 142.30893024080552 0.5 L 142.30893024080552 -0.5 L 25 -0.5 Z M 180.30893024080552 0.5 L 297.61786048161105 0.5 L 297.61786048161105 3.5 L 304.61786048161105 0 L 297.61786048161105 -3.5 L 297.61786048161105 -0.5 L 180.30893024080552 -0.5 Z"/><text text-anchor="middle" pointer-events="none" font-size="8px" fill="#000000" x="161.30893024080552" y="3" font-family="Helvetica Neue, Helvetica, Arial, sans-serif">HAS_PPI</text></g><g class="relationship" transform="translate(112.0961806351446 31.5214170401481) rotate(369.35842794956807)"><path class="b-outline" fill="#A5ABB6" stroke="none" d="M 25 0.5 L 206.482431509292 0.5 L 206.482431509292 -0.5 L 25 -0.5 Z M 255.482431509292 0.5 L 436.964863018584 0.5 L 436.964863018584 3.5 L 443.964863018584 0 L 436.964863018584 -3.5 L 436.964863018584 -0.5 L 255.482431509292 -0.5 Z"/><text text-anchor="middle" pointer-events="none" font-size="8px" fill="#000000" x="230.982431509292" y="3" font-family="Helvetica Neue, Helvetica, Arial, sans-serif">HAS_LEVEL</text></g><g class="relationship" transform="translate(-208.63051567310916 107.56298609068764) rotate(341.03762422218756)"><path class="b-outline" fill="#A5ABB6" stroke="none" d="M 25 0.5 L 186.82242774255482 0.5 L 186.82242774255482 -0.5 L 25 -0.5 Z M 224.82242774255482 0.5 L 386.64485548510964 0.5 L 386.64485548510964 3.5 L 393.64485548510964 0 L 386.64485548510964 -3.5 L 386.64485548510964 -0.5 L 224.82242774255482 -0.5 Z"/><text text-anchor="middle" pointer-events="none" font-size="8px" fill="#000000" x="205.82242774255482" y="3" font-family="Helvetica Neue, Helvetica, Arial, sans-serif">HAS_PPI</text></g><g class="relationship" transform="translate(187.29538838206523 -28.474484931972746) rotate(379.37179406180417)"><path class="b-outline" fill="#A5ABB6" stroke="none" d="M 25 0.5 L 177.38989232857466 0.5 L 177.38989232857466 -0.5 L 25 -0.5 Z M 226.38989232857466 0.5 L 378.7797846571493 0.5 L 378.7797846571493 3.5 L 385.7797846571493 0 L 378.7797846571493 -3.5 L 378.7797846571493 -0.5 L 226.38989232857466 -0.5 Z"/><text text-anchor="middle" pointer-events="none" font-size="8px" fill="#000000" x="201.88989232857466" y="3" font-family="Helvetica Neue, Helvetica, Arial, sans-serif">HAS_LEVEL</text></g><g class="relationship" transform="translate(-208.63051567310916 107.56298609068764) rotate(348.36464335572396)"><path class="b-outline" fill="#A5ABB6" stroke="none" d="M 25 0.5 L 224.11658736800752 0.5 L 224.11658736800752 -0.5 L 25 -0.5 Z M 262.1165873680075 0.5 L 461.23317473601503 0.5 L 461.23317473601503 3.5 L 468.23317473601503 0 L 461.23317473601503 -3.5 L 461.23317473601503 -0.5 L 262.1165873680075 -0.5 Z"/><text text-anchor="middle" pointer-events="none" font-size="8px" fill="#000000" x="243.11658736800752" y="3" font-family="Helvetica Neue, Helvetica, Arial, sans-serif">HAS_PPI</text></g><g class="relationship" transform="translate(274.4672006663908 8.08655105339641) rotate(378.36210872307385)"><path class="b-outline" fill="#A5ABB6" stroke="none" d="M 25 0.5 L 130.23253611210262 0.5 L 130.23253611210262 -0.5 L 25 -0.5 Z M 179.23253611210262 0.5 L 284.46507222420524 0.5 L 284.46507222420524 3.5 L 291.46507222420524 0 L 284.46507222420524 -3.5 L 284.46507222420524 -0.5 L 179.23253611210262 -0.5 Z"/><text text-anchor="middle" pointer-events="none" font-size="8px" fill="#000000" x="154.73253611210262" y="3" font-family="Helvetica Neue, Helvetica, Arial, sans-serif">HAS_LEVEL</text></g><g class="relationship" transform="translate(-208.63051567310916 107.56298609068764) rotate(328.6822132673634)"><path class="b-outline" fill="#A5ABB6" stroke="none" d="M 25 0.5 L 200.4698440475874 0.5 L 200.4698440475874 -0.5 L 25 -0.5 Z M 238.4698440475874 0.5 L 413.9396880951748 0.5 L 413.9396880951748 3.5 L 420.9396880951748 0 L 413.9396880951748 -3.5 L 413.9396880951748 -0.5 L 238.4698440475874 -0.5 Z"/><text text-anchor="middle" pointer-events="none" font-size="8px" fill="#000000" x="219.4698440475874" y="3" font-family="Helvetica Neue, Helvetica, Arial, sans-serif">HAS_PPI</text></g><g class="relationship" transform="translate(172.3346499153561 -124.22948148877244) rotate(389.96098190698706)"><path class="b-outline" fill="#A5ABB6" stroke="none" d="M 25 0.5 L 204.28335440739113 0.5 L 204.28335440739113 -0.5 L 25 -0.5 Z M 253.28335440739113 0.5 L 432.56670881478226 0.5 L 432.56670881478226 3.5 L 439.56670881478226 0 L 432.56670881478226 -3.5 L 432.56670881478226 -0.5 L 253.28335440739113 -0.5 Z"/><text text-anchor="middle" pointer-events="none" font-size="8px" fill="#000000" x="228.78335440739113" y="3" font-family="Helvetica Neue, Helvetica, Arial, sans-serif">HAS_LEVEL</text></g><g class="relationship" transform="translate(-208.63051567310916 107.56298609068764) rotate(357.3277937995198)"><path class="b-outline" fill="#A5ABB6" stroke="none" d="M 25 0.5 L 104.48400335995206 0.5 L 104.48400335995206 -0.5 L 25 -0.5 Z M 142.48400335995206 0.5 L 221.9680067199041 0.5 L 221.9680067199041 3.5 L 228.9680067199041 0 L 221.9680067199041 -3.5 L 221.9680067199041 -0.5 L 142.48400335995206 -0.5 Z"/><text text-anchor="middle" pointer-events="none" font-size="8px" fill="#000000" x="123.48400335995206" y="3" font-family="Helvetica Neue, Helvetica, Arial, sans-serif">HAS_PPI</text></g><g class="relationship" transform="translate(45.0613283843949 95.72251751954153) rotate(361.3038298426764)"><path class="b-outline" fill="#A5ABB6" stroke="none" d="M 25 0.5 L 236.947589138461 0.5 L 236.947589138461 -0.5 L 25 -0.5 Z M 285.947589138461 0.5 L 497.895178276922 0.5 L 497.895178276922 3.5 L 504.895178276922 0 L 497.895178276922 -3.5 L 497.895178276922 -0.5 L 285.947589138461 -0.5 Z"/><text text-anchor="middle" pointer-events="none" font-size="8px" fill="#000000" x="261.447589138461" y="3" font-family="Helvetica Neue, Helvetica, Arial, sans-serif">HAS_LEVEL</text></g><g class="relationship" transform="translate(-208.63051567310916 107.56298609068764) rotate(330.3929323087487)"><path class="b-outline" fill="#A5ABB6" stroke="none" d="M 25 0.5 L 152.54177169196495 0.5 L 152.54177169196495 -0.5 L 25 -0.5 Z M 190.54177169196495 0.5 L 318.0835433839299 0.5 L 318.0835433839299 3.5 L 325.0835433839299 0 L 318.0835433839299 -3.5 L 318.0835433839299 -0.5 L 190.54177169196495 -0.5 Z"/><text text-anchor="middle" pointer-events="none" font-size="8px" fill="#000000" x="171.54177169196495" y="3" font-family="Helvetica Neue, Helvetica, Arial, sans-serif">HAS_PPI</text></g><g class="relationship" transform="translate(95.74401731607635 -65.39548006770288) rotate(379.87382297892464)"><path class="b-outline" fill="#A5ABB6" stroke="none" d="M 25 0.5 L 226.70710053268937 0.5 L 226.70710053268937 -0.5 L 25 -0.5 Z M 275.70710053268937 0.5 L 477.41420106537873 0.5 L 477.41420106537873 3.5 L 484.41420106537873 0 L 477.41420106537873 -3.5 L 477.41420106537873 -0.5 L 275.70710053268937 -0.5 Z"/><text text-anchor="middle" pointer-events="none" font-size="8px" fill="#000000" x="251.20710053268937" y="3" font-family="Helvetica Neue, Helvetica, Arial, sans-serif">HAS_LEVEL</text></g><g class="relationship" transform="translate(-208.63051567310916 107.56298609068764) rotate(379.4045123376879)"><path class="b-outline" fill="#A5ABB6" stroke="none" d="M 25 0.5 L 105.62531848957619 0.5 L 105.62531848957619 -0.5 L 25 -0.5 Z M 143.6253184895762 0.5 L 224.25063697915238 0.5 L 224.25063697915238 3.5 L 231.25063697915238 0 L 224.25063697915238 -3.5 L 224.25063697915238 -0.5 L 143.6253184895762 -0.5 Z"/><text text-anchor="middle" pointer-events="none" font-size="8px" fill="#000000" x="124.62531848957619" y="3" font-family="Helvetica Neue, Helvetica, Arial, sans-serif">HAS_PPI</text></g><g class="relationship" transform="translate(33.064187126758235 192.69852268208462) rotate(351.0915254604695)"><path class="b-outline" fill="#A5ABB6" stroke="none" d="M 25 0.5 L 246.1850644635569 0.5 L 246.1850644635569 -0.5 L 25 -0.5 Z M 295.1850644635569 0.5 L 516.3701289271138 0.5 L 516.3701289271138 3.5 L 523.3701289271138 0 L 516.3701289271138 -3.5 L 516.3701289271138 -0.5 L 295.1850644635569 -0.5 Z"/><text text-anchor="middle" pointer-events="none" font-size="8px" fill="#000000" x="270.6850644635569" y="3" font-family="Helvetica Neue, Helvetica, Arial, sans-serif">HAS_LEVEL</text></g></g><g class="layer nodes"><g class="node" aria-label="graph-node94" transform="translate(-391.8368861833348,107.57346962474577)"><circle class="b-outline" cx="0" cy="0" r="25" fill="#F79767" stroke="#f36924" stroke-width="2px"/><text class="caption" text-anchor="middle" pointer-events="none" x="0" y="5" font-size="10px" fill="#FFFFFF" font-family="Helvetica Neue, Helvetica, Arial, sans-serif"> ACE</text></g><g class="node" aria-label="graph-node3114" transform="translate(574.8193118141678,107.77983702063116)"><circle class="b-outline" cx="0" cy="0" r="25" fill="#F16667" stroke="#eb2728" stroke-width="2px"/><text class="caption" text-anchor="middle" pointer-events="none" x="0" y="5" font-size="10px" fill="#FFFFFF" font-family="Helvetica Neue, Helvetica, Arial, sans-serif"> Level_02</text></g><g class="node" aria-label="graph-node661" transform="translate(-208.63051567310916,107.56298609068764)"><circle class="b-outline" cx="0" cy="0" r="25" fill="#D9C8AE" stroke="#c0a378" stroke-width="2px"/><text class="caption" text-anchor="middle" pointer-events="none" x="0" y="5" font-size="10px" fill="#2A2C34" font-family="Helvetica Neue, Helvetica, Arial, sans-serif"> ALB</text></g><g class="node" aria-label="graph-node2513" transform="translate(203.0352081574107,59.82208133981191)"><circle class="b-outline" cx="0" cy="0" r="25" fill="#8DCC93" stroke="#5db665" stroke-width="2px"/><text class="caption" text-anchor="middle" pointer-events="none" x="0" y="5" font-size="10px" fill="#2A2C34" font-family="Helvetica Neue, Helvetica, Arial, sans-serif"> IFNG</text></g><g class="node" aria-label="graph-node2521" transform="translate(206.41578289320626,240.21411868512178)"><circle class="b-outline" cx="0" cy="0" r="25" fill="#8DCC93" stroke="#5db665" stroke-width="2px"/><text class="caption" text-anchor="middle" pointer-events="none" x="0" y="5" font-size="10px" fill="#2A2C34" font-family="Helvetica Neue, Helvetica, Arial, sans-serif"> FGF2</text></g><g class="node" aria-label="graph-node2525" transform="translate(24.82826929848041,1.9048075531522806)"><circle class="b-outline" cx="0" cy="0" r="25" fill="#8DCC93" stroke="#5db665" stroke-width="2px"/><text class="caption" text-anchor="middle" pointer-events="none" x="0" y="5" font-size="10px" fill="#2A2C34" font-family="Helvetica Neue, Helvetica, Arial, sans-serif"> IL1B</text></g><g class="node" aria-label="graph-node2546" transform="translate(98.66801407771077,289.9768194221918)"><circle class="b-outline" cx="0" cy="0" r="25" fill="#8DCC93" stroke="#5db665" stroke-width="2px"/><text class="caption" text-anchor="middle" pointer-events="none" x="0" y="5" font-size="10px" fill="#2A2C34" font-family="Helvetica Neue, Helvetica, Arial, sans-serif"> EGF</text></g><g class="node" aria-label="graph-node2671" transform="translate(128.19709000010783,207.08017647951692)"><circle class="b-outline" cx="0" cy="0" r="25" fill="#8DCC93" stroke="#5db665" stroke-width="2px"/><text class="caption" text-anchor="middle" pointer-events="none" x="0" y="5" font-size="10px" fill="#2A2C34" font-family="Helvetica Neue, Helvetica, Arial, sans-serif"> APP</text></g><g class="node" aria-label="graph-node2750" transform="translate(185.97434703397857,328.5592529702806)"><circle class="b-outline" cx="0" cy="0" r="25" fill="#8DCC93" stroke="#5db665" stroke-width="2px"/><text class="caption" text-anchor="middle" pointer-events="none" x="0" y="5" font-size="10px" fill="#2A2C34" font-family="Helvetica Neue, Helvetica, Arial, sans-serif"> TFRC</text></g><g class="node" aria-label="graph-node2756" transform="translate(290.2801596010977,98.64438485117803)"><circle class="b-outline" cx="0" cy="0" r="25" fill="#8DCC93" stroke="#5db665" stroke-width="2px"/><text class="caption" text-anchor="middle" pointer-events="none" x="0" y="5" font-size="10px" fill="#2A2C34" font-family="Helvetica Neue, Helvetica, Arial, sans-serif"> IL10</text></g><g class="node" aria-label="graph-node2760" transform="translate(292.17372177227685,197.1876348609415)"><circle class="b-outline" cx="0" cy="0" r="25" fill="#8DCC93" stroke="#5db665" stroke-width="2px"/><text class="caption" text-anchor="middle" pointer-events="none" x="0" y="5" font-size="10px" fill="#2A2C34" font-family="Helvetica Neue, Helvetica, Arial, sans-serif"> FCGR3A</text></g><g class="node" aria-label="graph-node2767" transform="translate(281.0258316494853,292.76325864299133)"><circle class="b-outline" cx="0" cy="0" r="25" fill="#8DCC93" stroke="#5db665" stroke-width="2px"/><text class="caption" text-anchor="middle" pointer-events="none" x="0" y="5" font-size="10px" fill="#2A2C34" font-family="Helvetica Neue, Helvetica, Arial, sans-serif"> ERVW-1</text></g><g class="node" aria-label="graph-node2813" transform="translate(137.07968098492495,117.75520197705545)"><circle class="b-outline" cx="0" cy="0" r="25" fill="#8DCC93" stroke="#5db665" stroke-width="2px"/><text class="caption" text-anchor="middle" pointer-events="none" x="0" y="5" font-size="10px" fill="#2A2C34" font-family="Helvetica Neue, Helvetica, Arial, sans-serif"> TNF</text></g><g class="node" aria-label="graph-node2852" transform="translate(360.17927928659486,41.750742049574974)"><circle class="b-outline" cx="0" cy="0" r="25" fill="#8DCC93" stroke="#5db665" stroke-width="2px"/><text class="caption" text-anchor="middle" pointer-events="none" x="0" y="5" font-size="10px" fill="#2A2C34" font-family="Helvetica Neue, Helvetica, Arial, sans-serif"> FN1</text></g><g class="node" aria-label="graph-node2861" transform="translate(262.28045703832066,-90.10879994245636)"><circle class="b-outline" cx="0" cy="0" r="25" fill="#8DCC93" stroke="#5db665" stroke-width="2px"/><text class="caption" text-anchor="middle" pointer-events="none" x="0" y="5" font-size="10px" fill="#2A2C34" font-family="Helvetica Neue, Helvetica, Arial, sans-serif"> IL6</text></g><g class="node" aria-label="graph-node2916" transform="translate(213.5336651855952,153.37961756065673)"><circle class="b-outline" cx="0" cy="0" r="25" fill="#8DCC93" stroke="#5db665" stroke-width="2px"/><text class="caption" text-anchor="middle" pointer-events="none" x="0" y="5" font-size="10px" fill="#2A2C34" font-family="Helvetica Neue, Helvetica, Arial, sans-serif"> ANPEP</text></g><g class="node" aria-label="graph-node2935" transform="translate(112.0961806351446,31.5214170401481)"><circle class="b-outline" cx="0" cy="0" r="25" fill="#8DCC93" stroke="#5db665" stroke-width="2px"/><text class="caption" text-anchor="middle" pointer-events="none" x="0" y="5" font-size="10px" fill="#2A2C34" font-family="Helvetica Neue, Helvetica, Arial, sans-serif"> VTN</text></g><g class="node" aria-label="graph-node2945" transform="translate(187.29538838206523,-28.474484931972746)"><circle class="b-outline" cx="0" cy="0" r="25" fill="#8DCC93" stroke="#5db665" stroke-width="2px"/><text class="caption" text-anchor="middle" pointer-events="none" x="0" y="5" font-size="10px" fill="#2A2C34" font-family="Helvetica Neue, Helvetica, Arial, sans-serif"> SPARC</text></g><g class="node" aria-label="graph-node2969" transform="translate(274.4672006663908,8.08655105339641)"><circle class="b-outline" cx="0" cy="0" r="25" fill="#8DCC93" stroke="#5db665" stroke-width="2px"/><text class="caption" text-anchor="middle" pointer-events="none" x="0" y="5" font-size="10px" fill="#2A2C34" font-family="Helvetica Neue, Helvetica, Arial, sans-serif"> IGF1</text></g><g class="node" aria-label="graph-node3204" transform="translate(172.3346499153561,-124.22948148877244)"><circle class="b-outline" cx="0" cy="0" r="25" fill="#8DCC93" stroke="#5db665" stroke-width="2px"/><text class="caption" text-anchor="middle" pointer-events="none" x="0" y="5" font-size="10px" fill="#2A2C34" font-family="Helvetica Neue, Helvetica, Arial, sans-serif"> ACTB</text></g><g class="node" aria-label="graph-node3386" transform="translate(45.0613283843949,95.72251751954153)"><circle class="b-outline" cx="0" cy="0" r="25" fill="#8DCC93" stroke="#5db665" stroke-width="2px"/><text class="caption" text-anchor="middle" pointer-events="none" x="0" y="5" font-size="10px" fill="#2A2C34" font-family="Helvetica Neue, Helvetica, Arial, sans-serif"> APOC3</text></g><g class="node" aria-label="graph-node3388" transform="translate(95.74401731607635,-65.39548006770288)"><circle class="b-outline" cx="0" cy="0" r="25" fill="#8DCC93" stroke="#5db665" stroke-width="2px"/><text class="caption" text-anchor="middle" pointer-events="none" x="0" y="5" font-size="10px" fill="#2A2C34" font-family="Helvetica Neue, Helvetica, Arial, sans-serif"> APOB</text></g><g class="node" aria-label="graph-node3390" transform="translate(33.064187126758235,192.69852268208462)"><circle class="b-outline" cx="0" cy="0" r="25" fill="#8DCC93" stroke="#5db665" stroke-width="2px"/><text class="caption" text-anchor="middle" pointer-events="none" x="0" y="5" font-size="10px" fill="#2A2C34" font-family="Helvetica Neue, Helvetica, Arial, sans-serif"> APOE</text></g></g></svg>